<?xml version="1.0" standalone="no"?>
<!DOCTYPE svg PUBLIC "-//W3C//DTD SVG 20010904//EN"
 "http://www.w3.org/TR/2001/REC-SVG-20010904/DTD/svg10.dtd">
<svg version="1.0" xmlns="http://www.w3.org/2000/svg"
 width="357.000000pt" height="316.000000pt" viewBox="0 0 357.000000 316.000000"
 preserveAspectRatio="xMidYMid meet">

<g transform="translate(0.000000,316.000000) scale(0.100000,-0.100000)"
fill="#000000" stroke="none">
<path d="M575 2982 c-106 -19 -170 -82 -189 -183 -6 -33 -10 -37 -45 -43 -123
-19 -201 -178 -143 -292 57 -110 170 -151 283 -103 l49 21 126 -118 c70 -66
151 -141 180 -167 30 -27 52 -53 48 -58 -3 -5 -91 -9 -195 -9 l-191 0 -30 -30
c-27 -27 -30 -36 -25 -72 3 -22 15 -50 27 -62 19 -20 33 -21 219 -24 l199 -3
12 -67 c34 -182 135 -360 293 -513 l68 -66 -68 -65 c-37 -36 -139 -131 -226
-211 l-157 -147 -43 23 c-31 16 -59 22 -109 22 -58 0 -72 -4 -110 -30 -74 -52
-110 -143 -89 -222 22 -82 88 -148 162 -159 34 -6 37 -9 42 -46 14 -103 101
-178 207 -178 152 0 250 144 195 287 l-18 47 78 73 c42 41 79 72 82 69 2 -2
11 -30 20 -63 37 -144 142 -275 266 -334 169 -79 418 -78 594 1 125 57 232
192 264 335 7 30 15 55 19 55 3 0 40 -31 80 -68 l74 -68 -17 -42 c-36 -90 -12
-192 58 -249 72 -60 158 -66 242 -17 53 30 81 69 96 134 11 49 13 50 62 65
119 34 187 182 133 290 -24 47 -84 96 -136 111 -58 17 -94 13 -160 -18 l-42
-20 -220 207 c-121 114 -220 210 -220 214 0 3 23 24 51 46 149 118 279 333
324 538 l17 77 199 0 c199 0 200 0 224 25 31 30 34 92 6 126 -19 24 -23 24
-225 27 -168 3 -206 6 -206 17 0 8 77 86 172 174 l172 160 32 -19 c134 -83
313 22 314 184 0 96 -73 188 -160 202 -36 6 -38 8 -50 61 -14 63 -59 121 -116
148 -45 21 -133 21 -179 -1 -53 -25 -102 -88 -116 -148 -10 -45 -8 -59 10
-113 l21 -63 -77 -73 c-43 -41 -97 -90 -119 -110 l-41 -37 -27 39 c-44 63
-175 185 -259 239 -161 105 -325 148 -537 139 -190 -7 -334 -52 -480 -150 -58
-38 -183 -160 -221 -214 -17 -24 -35 -43 -40 -43 -21 0 -240 215 -235 230 3 8
13 37 22 63 14 41 15 56 5 101 -13 57 -56 118 -101 141 -35 18 -99 32 -125 27z
m60 -53 c31 -8 56 -24 79 -50 57 -62 60 -140 9 -207 l-26 -35 39 -35 c21 -20
86 -80 143 -134 l103 -97 -37 -86 c-20 -47 -39 -101 -42 -120 -3 -20 -10 -38
-15 -41 -5 -3 -77 59 -161 138 -84 78 -165 154 -180 167 l-27 24 -22 -20 c-36
-32 -63 -43 -108 -43 -139 0 -215 155 -129 264 30 38 75 58 130 58 l47 0 -5
38 c-10 76 43 157 117 178 19 6 36 11 38 11 2 1 23 -4 47 -10z m2421 -20 c58
-27 88 -78 91 -148 l1 -55 44 -1 c170 -8 226 -230 77 -306 -68 -34 -120 -26
-200 33 -14 10 -43 -13 -190 -150 l-173 -162 -31 88 c-16 48 -40 104 -52 124
l-21 36 61 59 c34 32 97 91 140 131 72 68 77 75 63 91 -22 24 -46 86 -46 119
0 49 41 113 90 139 53 28 91 29 146 2z m-437 -721 c11 -35 22 -81 23 -103 l3
-40 -853 -3 -853 -2 6 37 c4 21 15 68 26 106 l20 67 803 0 804 0 21 -62z m31
-367 c0 -39 -53 -188 -96 -271 -138 -262 -355 -406 -664 -440 -259 -29 -508
46 -676 203 -87 81 -141 156 -195 271 -31 67 -79 217 -79 248 0 4 385 8 855 8
841 0 855 0 855 -19z m-1235 -701 c39 -16 78 -30 88 -30 15 0 17 -6 12 -32 -3
-18 -9 -53 -13 -78 -5 -27 -13 -46 -22 -48 -8 -1 -53 17 -100 41 -73 37 -85
47 -82 67 2 22 38 110 44 110 2 0 35 -13 73 -30z m835 -22 c41 -95 41 -94 -44
-133 -41 -20 -89 -38 -105 -41 -28 -6 -30 -4 -36 32 -4 22 -11 57 -16 79 -4
22 -5 41 -1 43 41 16 169 60 175 61 4 1 17 -18 27 -41z m309 -206 l204 -191
29 24 c86 72 215 48 258 -48 26 -55 25 -93 -2 -147 -27 -52 -89 -90 -150 -90
l-38 0 0 -50 c0 -59 -17 -97 -60 -133 -60 -51 -147 -47 -209 9 -66 59 -73 150
-19 219 l21 27 -111 105 c-112 104 -112 105 -112 151 0 73 -27 219 -55 302
l-25 74 32 -31 c18 -17 125 -117 237 -221z m-1294 221 c-22 -54 -46 -170 -56
-272 l-10 -116 -111 -105 -110 -105 23 -29 c35 -45 39 -139 7 -186 -32 -49
-105 -84 -156 -75 -91 15 -142 75 -142 167 l0 56 -44 0 c-137 0 -216 159 -129
262 35 42 73 60 128 60 51 0 77 -10 115 -45 l25 -23 230 214 c127 117 232 214
234 214 2 0 0 -8 -4 -17z m438 -60 l67 -6 0 -88 0 -89 -62 7 c-35 3 -85 11
-113 18 -48 11 -50 12 -49 45 0 19 4 57 8 84 l8 48 36 -6 c20 -4 67 -9 105
-13z m306 -46 c15 -87 14 -105 -6 -111 -19 -6 -149 -25 -170 -26 -10 0 -13 24
-13 88 l0 89 83 10 c45 5 85 10 88 11 4 1 12 -26 18 -61z m-624 -86 c50 -24
91 -45 93 -47 6 -4 -10 -121 -18 -134 -8 -12 -69 14 -158 69 l-44 26 7 60 c7
61 12 78 23 73 4 -2 48 -23 97 -47z m920 -3 c17 -104 21 -97 -95 -156 -119
-60 -112 -62 -125 45 -6 56 -5 63 12 69 10 3 56 20 103 39 47 19 88 34 92 34
4 1 10 -14 13 -31z m-632 -80 l97 -12 0 -85 0 -84 -68 6 c-38 4 -95 15 -128
25 l-59 18 2 45 c1 24 5 59 8 77 5 29 9 33 28 28 12 -4 66 -12 120 -18z m360
0 c3 -13 9 -50 12 -84 l7 -60 -53 -13 c-30 -6 -82 -15 -116 -18 l-63 -6 0 87
0 86 33 1 c25 1 115 16 168 28 4 0 9 -9 12 -21z m-468 -200 c123 -33 344 -30
477 5 53 14 136 44 183 66 47 22 88 40 92 40 11 1 3 -96 -13 -157 -61 -238
-263 -365 -554 -348 -217 12 -366 100 -441 261 -28 60 -58 184 -59 247 l0 26
118 -59 c64 -33 153 -69 197 -81z"/>
<path d="M1355 1771 c-75 -35 -135 -124 -135 -200 0 -48 29 -125 62 -165 38
-46 118 -86 173 -86 88 0 198 83 223 169 18 57 14 100 -12 156 -55 119 -200
177 -311 126z"/>
<path d="M2080 1781 c-110 -36 -170 -115 -170 -226 0 -121 65 -199 190 -226
103 -22 201 28 246 125 72 154 -23 319 -190 332 -28 2 -62 0 -76 -5z"/>
<path d="M1736 1309 c-45 -36 -30 -91 32 -109 45 -14 84 -2 107 34 21 32 12
62 -25 81 -40 21 -83 19 -114 -6z"/>
</g>
</svg>
